<svg xmlns="http://www.w3.org/2000/svg" width="960" height="520" viewBox="0 0 960 520">
<style>
text { font-family: monospace; fill: #d7e0ea; }
.axis { stroke: #8ea3b5; stroke-width: 1; }
.grid { stroke: #2f4353; stroke-width: 1; }
.trace { fill: none; stroke: #4db2ff; stroke-width: 2; }
.bg { fill: #101923; }
</style>
<rect class="bg" x="0" y="0" width="960" height="520" />
<text x="480" y="28" text-anchor="middle" font-size="20">Blue LED Spectrum (Background Subtracted)</text>
<line class="axis" x1="56" y1="56" x2="56" y2="464" />
<line class="axis" x1="56" y1="464" x2="904" y2="464" />
<line class="grid" x1="56" y1="464.00" x2="904" y2="464.00" />
<text x="48" y="468.00" text-anchor="end" font-size="12">0.0</text>
<line class="grid" x1="56" y1="362.00" x2="904" y2="362.00" />
<text x="48" y="366.00" text-anchor="end" font-size="12">216.9</text>
<line class="grid" x1="56" y1="260.00" x2="904" y2="260.00" />
<text x="48" y="264.00" text-anchor="end" font-size="12">433.8</text>
<line class="grid" x1="56" y1="158.00" x2="904" y2="158.00" />
<text x="48" y="162.00" text-anchor="end" font-size="12">650.8</text>
<line class="grid" x1="56" y1="56.00" x2="904" y2="56.00" />
<text x="48" y="60.00" text-anchor="end" font-size="12">867.7</text>
<line class="grid" x1="56.00" y1="56" x2="56.00" y2="464" />
<text x="56.00" y="484" text-anchor="middle" font-size="12">0</text>
<line class="grid" x1="197.83" y1="56" x2="197.83" y2="464" />
<text x="197.83" y="484" text-anchor="middle" font-size="12">48</text>
<line class="grid" x1="339.65" y1="56" x2="339.65" y2="464" />
<text x="339.65" y="484" text-anchor="middle" font-size="12">96</text>
<line class="grid" x1="481.48" y1="56" x2="481.48" y2="464" />
<text x="481.48" y="484" text-anchor="middle" font-size="12">144</text>
<line class="grid" x1="623.30" y1="56" x2="623.30" y2="464" />
<text x="623.30" y="484" text-anchor="middle" font-size="12">192</text>
<line class="grid" x1="765.13" y1="56" x2="765.13" y2="464" />
<text x="765.13" y="484" text-anchor="middle" font-size="12">240</text>
<line class="grid" x1="904.00" y1="56" x2="904.00" y2="464" />
<text x="904.00" y="484" text-anchor="middle" font-size="12">287</text>
<polyline class="trace" points="56.00,427.93 58.95,427.32 61.91,426.68 64.86,426.07 67.82,425.64 70.77,425.62 73.73,425.32 76.68,425.72 79.64,426.05 82.59,426.42 85.55,425.89 88.50,425.44 91.46,425.11 94.41,424.32 97.37,424.05 100.32,423.83 103.28,423.44 106.23,422.87 109.18,421.62 112.14,420.64 115.09,419.19 118.05,418.11 121.00,416.61 123.96,415.29 126.91,413.29 129.87,411.37 132.82,408.91 135.78,406.46 138.73,403.67 141.69,401.03 144.64,397.93 147.60,394.01 150.55,389.74 153.51,384.18 156.46,377.73 159.41,369.48 162.37,358.51 165.32,342.60 168.28,319.78 171.23,283.20 174.19,228.98 177.14,148.22 180.10,64.09 183.05,57.92 186.01,59.51 188.96,59.13 191.92,59.27 194.87,62.05 197.83,61.82 200.78,63.05 203.74,64.66 206.69,63.99 209.64,65.03 212.60,90.93 215.55,304.28 218.51,464.00 221.46,464.00 224.42,464.00 227.37,464.00 230.33,464.00 233.28,464.00 236.24,464.00 239.19,464.00 242.15,464.00 245.10,464.00 248.06,464.00 251.01,464.00 253.97,464.00 256.92,464.00 259.87,456.73 262.83,296.42 265.78,84.27 268.74,62.29 271.69,60.92 274.65,60.45 277.60,59.31 280.56,59.86 283.51,58.53 286.47,58.49 289.42,58.61 292.38,56.65 295.33,58.06 298.29,58.31 301.24,56.00 304.20,56.82 307.15,56.37 310.10,57.82 313.06,96.18 316.01,164.49 318.97,215.05 321.92,251.32 324.88,287.43 327.83,315.17 330.79,337.72 333.74,355.87 336.70,370.78 339.65,382.57 342.61,392.33 345.56,399.42 348.52,405.93 351.47,410.45 354.43,414.23 357.38,417.15 360.33,420.07 363.29,422.40 366.24,424.68 369.20,426.46 372.15,428.52 375.11,430.20 378.06,432.08 381.02,433.87 383.97,435.37 386.93,436.55 389.88,437.49 392.84,438.53 395.79,439.29 398.75,439.70 401.70,439.90 404.66,440.27 407.61,440.27 410.56,440.57 413.52,440.18 416.47,440.04 419.43,440.53 422.38,440.63 425.34,440.84 428.29,441.06 431.25,441.68 434.20,442.25 437.16,443.06 440.11,443.88 443.07,444.78 446.02,445.35 448.98,445.99 451.93,446.78 454.89,447.35 457.84,448.19 460.79,448.40 463.75,448.93 466.70,449.34 469.66,449.38 472.61,449.83 475.57,449.74 478.52,449.97 481.48,449.74 484.43,449.70 487.39,449.44 490.34,448.70 493.30,448.64 496.25,448.15 499.21,448.03 502.16,447.68 505.11,447.60 508.07,447.37 511.02,446.92 513.98,447.27 516.93,447.39 519.89,447.60 522.84,447.52 525.80,447.88 528.75,448.35 531.71,448.56 534.66,448.48 537.62,448.91 540.57,449.44 543.53,449.81 546.48,450.21 549.44,450.01 552.39,450.27 555.34,450.85 558.30,451.19 561.25,451.70 564.21,451.97 567.16,452.28 570.12,452.52 573.07,452.93 576.03,453.30 578.98,453.77 581.94,453.81 584.89,453.89 587.85,454.03 590.80,454.48 593.76,454.71 596.71,455.14 599.67,455.16 602.62,455.73 605.57,455.89 608.53,455.91 611.48,456.28 614.44,456.46 617.39,456.81 620.35,456.95 623.30,457.20 626.26,457.50 629.21,457.48 632.17,457.73 635.12,457.53 638.08,458.08 641.03,458.61 643.99,458.83 646.94,458.89 649.90,459.02 652.85,458.98 655.80,459.30 658.76,459.00 661.71,459.24 664.67,459.51 667.62,459.45 670.58,459.57 673.53,459.85 676.49,459.91 679.44,460.28 682.40,460.45 685.35,460.06 688.31,460.24 691.26,460.08 694.22,460.34 697.17,460.59 700.13,460.61 703.08,460.90 706.03,460.92 708.99,461.22 711.94,461.06 714.90,460.90 717.85,461.35 720.81,461.41 723.76,461.45 726.72,461.37 729.67,461.65 732.63,461.35 735.58,461.41 738.54,461.47 741.49,461.67 744.45,461.65 747.40,461.90 750.36,461.77 753.31,461.94 756.26,462.18 759.22,461.83 762.17,461.86 765.13,462.00 768.08,462.24 771.04,462.16 773.99,462.32 776.95,462.16 779.90,462.43 782.86,462.12 785.81,462.04 788.77,462.18 791.72,462.41 794.68,462.37 797.63,462.32 800.59,462.37 803.54,462.49 806.49,462.63 809.45,462.86 812.40,462.79 815.36,462.86 818.31,462.71 821.27,462.79 824.22,462.51 827.18,462.73 830.13,462.90 833.09,462.59 836.04,462.79 839.00,462.79 841.95,462.80 844.91,462.73 847.86,462.80 850.82,462.82 853.77,463.00 856.72,463.00 859.68,463.08 862.63,462.88 865.59,462.86 868.54,462.94 871.50,462.98 874.45,462.80 877.41,462.69 880.36,462.96 883.32,463.24 886.27,463.08 889.23,463.04 892.18,462.94 895.14,462.98 898.09,463.08 901.05,462.88 904.00,463.04" />
<text x="480" y="504" text-anchor="middle" font-size="14">Pixel index</text>
<text x="18" y="260" transform="rotate(-90 18 260)" text-anchor="middle" font-size="14">Background-subtracted counts</text>
</svg>